<?xml version="1.0" encoding="utf-8"?>
<!-- Generator: Adobe Illustrator 16.0.0, SVG Export Plug-In . SVG Version: 6.00 Build 0)  -->
<!DOCTYPE svg PUBLIC "-//W3C//DTD SVG 1.1//EN" "http://www.w3.org/Graphics/SVG/1.1/DTD/svg11.dtd">
<svg version="1.1" id="Layer_1" xmlns="http://www.w3.org/2000/svg" xmlns:xlink="http://www.w3.org/1999/xlink" x="0px" y="0px"
	 width="83.784px" height="80px" viewBox="0 0 83.784 80" enable-background="new 0 0 83.784 80" xml:space="preserve">
<path fill="#0048CF" d="M37.003,4.527c2.688,2.185,7.09,2.185,9.778,0l4.128-3.352c2.688-2.185,5.618-1.233,6.51,2.115l1.367,5.137
	c0.891,3.349,4.451,5.936,7.912,5.749l5.309-0.287c3.46-0.187,5.271,2.306,4.023,5.539l-1.912,4.96
	c-1.248,3.233,0.112,7.419,3.021,9.302l4.463,2.888c2.909,1.882,2.909,4.963,0,6.846l-4.463,2.888
	c-2.909,1.883-4.27,6.068-3.021,9.301l1.912,4.961c1.247,3.232-0.563,5.725-4.023,5.538l-5.309-0.287
	c-3.461-0.187-7.021,2.399-7.912,5.749l-1.367,5.137c-0.892,3.349-3.822,4.301-6.51,2.115l-4.128-3.352
	c-2.688-2.186-7.091-2.186-9.778,0l-4.128,3.352c-2.688,2.186-5.618,1.233-6.51-2.115l-1.368-5.137
	c-0.891-3.35-4.451-5.936-7.912-5.749l-5.309,0.287c-3.459,0.187-5.27-2.306-4.023-5.538l1.913-4.961
	c1.247-3.232-0.112-7.418-3.022-9.301l-4.463-2.888c-2.908-1.883-2.908-4.964,0-6.846l4.463-2.888
	c2.91-1.883,4.27-6.068,3.022-9.302l-1.913-4.96c-1.246-3.233,0.564-5.725,4.023-5.539l5.309,0.287
	c3.461,0.187,7.021-2.4,7.912-5.749l1.368-5.137c0.892-3.349,3.821-4.3,6.51-2.115L37.003,4.527z"/>
<text transform="matrix(0.985 -0.1726 0.1726 0.985 19.8408 51.4326)"><tspan x="0" y="0" fill="#FFFFFF" font-family="'DroidSans-Bold'" font-size="20.7843">N</tspan><tspan x="15.862" y="0" fill="#FFFFFF" font-family="'DroidSans-Bold'" font-size="20.7843">E</tspan><tspan x="27.918" y="0.001" fill="#FFFFFF" font-family="'DroidSans-Bold'" font-size="20.7843">W</tspan></text>
</svg>
